<?xml version="1.0" standalone="no"?>
<!DOCTYPE svg PUBLIC "-//W3C//DTD SVG 20010904//EN"
 "http://www.w3.org/TR/2001/REC-SVG-20010904/DTD/svg10.dtd">
<svg version="1.0" xmlns="http://www.w3.org/2000/svg"
 width="1024.000000pt" height="1024.000000pt" viewBox="0 0 1024.000000 1024.000000"
 preserveAspectRatio="xMidYMid meet">

<g transform="translate(0.000000,1024.000000) scale(0.100000,-0.100000)"
fill="#000000" stroke="none">
<path d="M4748 8633 l-3 -1608 -599 1485 c-330 817 -601 1487 -603 1489 -6 8
-678 -267 -676 -276 1 -4 279 -694 617 -1532 339 -838 616 -1527 616 -1530 0
-3 -528 522 -1173 1167 l-1172 1172 -258 -258 -257 -257 1120 -1120 c615 -615
1118 -1121 1116 -1122 -2 -2 -649 278 -1437 623 -789 345 -1441 629 -1450 631
-17 5 -16 5 -218 -457 l-89 -205 56 -25 c31 -14 721 -316 1533 -670 l1476
-645 -1673 -3 -1674 -2 0 -370 0 -370 1674 -2 1673 -3 -1476 -645 c-812 -354
-1502 -656 -1533 -670 l-56 -25 89 -205 c202 -462 201 -462 218 -457 9 2 661
286 1450 631 788 345 1435 625 1437 623 2 -1 -501 -507 -1116 -1122 l-1120
-1120 257 -257 258 -258 1172 1172 c645 645 1173 1170 1173 1167 0 -3 -277
-692 -616 -1530 -338 -838 -616 -1528 -617 -1532 -2 -9 670 -284 676 -276 2 2
273 672 603 1489 l599 1485 3 -1608 2 -1607 370 0 370 0 2 1607 3 1608 599
-1485 c330 -817 601 -1487 603 -1489 6 -8 678 267 676 276 -1 4 -279 694 -617
1532 -339 838 -616 1527 -616 1530 0 3 528 -522 1173 -1167 l1172 -1172 258
258 257 257 -1120 1120 c-615 615 -1118 1121 -1116 1122 2 2 649 -278 1437
-623 789 -345 1441 -629 1450 -631 17 -5 16 -5 218 457 l89 205 -56 25 c-31
14 -721 316 -1533 670 l-1476 645 1673 3 1674 2 0 370 0 370 -1674 2 -1673 3
1476 645 c812 354 1502 656 1533 670 l56 25 -89 205 c-202 462 -201 462 -218
457 -9 -2 -661 -286 -1450 -631 -788 -345 -1435 -625 -1437 -623 -2 1 501 507
1116 1122 l1120 1120 -257 257 -258 258 -1172 -1172 c-645 -645 -1173 -1170
-1173 -1167 0 3 277 692 616 1530 338 838 616 1528 617 1532 2 9 -670 284
-676 276 -2 -2 -273 -672 -603 -1489 l-599 -1485 -3 1608 -2 1607 -370 0 -370
0 -2 -1607z"/>
</g>
</svg>
